# xmcd
#
# Track frame offsets:
#	152
#	21562
#	38547
#	55135
#	75572
#	95787
#	112062
#	136932
#	157727
#	177975
#
# Disc length: 2677 seconds
# Revision: 2
# Processed by: cddbd v1.5.2PL0 Copyright (c) Steve Scherf et al.
# Submitted via: dBpowerAMP V12.0
#
DISCID=7b0a730a
DTITLE=中森明菜 - CRUISE [dBS+1]
DYEAR=1989
DGENRE=Japanese Pop
TTITLE0=URAGIRI
TTITLE1=赤い不思議
TTITLE2=さよならじゃ終わらない
TTITLE3=LIAR
TTITLE4=乱火
TTITLE5=Close Your Eyes
TTITLE6=Standing In Blue
TTITLE7=風は空の彼方
TTITLE8=SINGER
TTITLE9=雨が降ってた
EXTD=
EXTT0=
EXTT1=
EXTT2=
EXTT3=
EXTT4=
EXTT5=
EXTT6=
EXTT7=
EXTT8=
EXTT9=
PLAYORDER=
